<svg width="50" height="74" viewBox="0 0 50 74" fill="none" xmlns="http://www.w3.org/2000/svg">
<path d="M49.5 72.6025L2.52539 72.6025L2.52539 72.1025L2.07031 72.1025L2.07031 3.23828L1.97559 3.23828L2.07031 3.17676L2.07031 1.5L49.5 1.5L49.5 72.6025ZM4.20215 3.23828L4.20215 70.8643L47.3691 70.8643L47.3691 3.23828L4.20215 3.23828Z" fill="white" stroke="white"/>
<path d="M26.5646 72.2081L24.3575 72.2081L24.3575 1.89368L26.5646 1.89368L26.5646 72.2081Z" fill="white" stroke="white"/>
<path d="M48.741 26.8464L2.44604 26.8464L2.44604 25.1091L48.741 25.1091L48.741 26.8464Z" fill="white" stroke="white"/>
<path d="M48.741 49.1161L2.44611 49.1161L2.44611 47.3788L48.741 47.3788L48.741 49.1161Z" fill="white" stroke="white"/>
<path d="M48.8964 37.9456L2.62885 37.9456L2.62885 36.1575L48.8964 36.1575L48.8964 37.9456Z" fill="white" stroke="white"/>
</svg>
