<svg width="36" height="18" viewBox="0 0 36 18" fill="none" xmlns="http://www.w3.org/2000/svg">
<path d="M16.5523 3.35001C16.9113 3.35001 17.2023 3.75295 17.2023 4.25001C17.2023 4.74706 16.9113 5.15001 16.5523 5.15001H1.55234C1.19336 5.15001 0.902344 4.74706 0.902344 4.25001C0.902344 3.75295 1.19336 3.35001 1.55234 3.35001H16.5523Z" fill="black"/>
<path d="M16.5523 8.35001C16.9113 8.35001 17.2023 8.75295 17.2023 9.25001C17.2023 9.74706 16.9113 10.15 16.5523 10.15H1.55234C1.19336 10.15 0.902344 9.74706 0.902344 9.25001C0.902344 8.75295 1.19336 8.35001 1.55234 8.35001H16.5523Z" fill="black"/>
<path d="M16.5523 13.35C16.9113 13.35 17.2023 13.7529 17.2023 14.25C17.2023 14.7471 16.9113 15.15 16.5523 15.15H1.55234C1.19336 15.15 0.902344 14.7471 0.902344 14.25C0.902344 13.7529 1.19336 13.35 1.55234 13.35H16.5523Z" fill="black"/>
<path d="M31.8963 3.23709C32.1501 2.98325 32.6408 3.0624 32.9923 3.41387C33.3438 3.76534 33.4229 4.25605 33.1691 4.50989L22.5625 15.1165C22.3086 15.3703 21.8179 15.2912 21.4665 14.9397C21.115 14.5882 21.0359 14.0975 21.2897 13.8437L31.8963 3.23709Z" fill="black"/>
<path d="M32.8152 13.8437C33.0691 14.0975 32.9899 14.5882 32.6385 14.9397C32.287 15.2912 31.7963 15.3703 31.5425 15.1165L20.9359 4.50988C20.682 4.25604 20.7612 3.76533 21.1126 3.41386C21.4641 3.06239 21.9548 2.98324 22.2086 3.23708L32.8152 13.8437Z" fill="black"/>
</svg>
