<svg width="30" height="30" viewBox="0 0 30 30" fill="none" xmlns="http://www.w3.org/2000/svg">
<g clip-path="url(#clip0_19_95)">
<path d="M14.7857 3.07254C18.6027 3.07254 19.0547 3.08929 20.5558 3.15625C21.9509 3.21763 22.7042 3.45201 23.2065 3.64732C23.8705 3.90402 24.3504 4.21652 24.8471 4.71317C25.3493 5.2154 25.6563 5.68973 25.9129 6.3538C26.1083 6.85603 26.3426 7.61495 26.404 9.00446C26.471 10.5112 26.4877 10.9632 26.4877 14.7746C26.4877 18.5915 26.471 19.0435 26.404 20.5446C26.3426 21.9397 26.1083 22.6931 25.9129 23.1953C25.6563 23.8594 25.3438 24.3393 24.8471 24.8359C24.3449 25.3382 23.8705 25.6451 23.2065 25.9018C22.7042 26.0971 21.9453 26.3315 20.5558 26.3929C19.0491 26.4598 18.5971 26.4766 14.7857 26.4766C10.9688 26.4766 10.5167 26.4598 9.01563 26.3929C7.62054 26.3315 6.86719 26.0971 6.36496 25.9018C5.70089 25.6451 5.22098 25.3326 4.72433 24.8359C4.2221 24.3337 3.91518 23.8594 3.65848 23.1953C3.46317 22.6931 3.22879 21.9342 3.16741 20.5446C3.10045 19.0379 3.08371 18.5859 3.08371 14.7746C3.08371 10.9576 3.10045 10.5056 3.16741 9.00446C3.22879 7.60937 3.46317 6.85603 3.65848 6.3538C3.91518 5.68973 4.22768 5.20982 4.72433 4.71317C5.22656 4.21094 5.70089 3.90402 6.36496 3.64732C6.86719 3.45201 7.62612 3.21763 9.01563 3.15625C10.5167 3.08929 10.9688 3.07254 14.7857 3.07254ZM14.7857 0.5C10.9074 0.5 10.4219 0.516741 8.89844 0.583705C7.38058 0.65067 6.33705 0.896205 5.43304 1.24777C4.48996 1.61607 3.69196 2.10156 2.89955 2.89955C2.10156 3.69196 1.61607 4.48996 1.24777 5.42746C0.896205 6.33705 0.65067 7.375 0.583705 8.89286C0.516741 10.4219 0.5 10.9074 0.5 14.7857C0.5 18.6641 0.516741 19.1496 0.583705 20.673C0.65067 22.1908 0.896205 23.2344 1.24777 24.1384C1.61607 25.0815 2.10156 25.8795 2.89955 26.6719C3.69196 27.4643 4.48996 27.9554 5.42746 28.3181C6.33705 28.6696 7.375 28.9152 8.89286 28.9821C10.4163 29.0491 10.9018 29.0658 14.7801 29.0658C18.6585 29.0658 19.144 29.0491 20.6674 28.9821C22.1853 28.9152 23.2288 28.6696 24.1328 28.3181C25.0703 27.9554 25.8683 27.4643 26.6607 26.6719C27.4531 25.8795 27.9442 25.0815 28.3069 24.144C28.6585 23.2344 28.904 22.1964 28.971 20.6786C29.0379 19.1551 29.0547 18.6696 29.0547 14.7913C29.0547 10.9129 29.0379 10.4275 28.971 8.90402C28.904 7.38616 28.6585 6.34263 28.3069 5.43862C27.9554 4.48996 27.4699 3.69196 26.6719 2.89955C25.8795 2.10714 25.0815 1.61607 24.144 1.25335C23.2344 0.901786 22.1964 0.65625 20.6786 0.589286C19.1496 0.516741 18.6641 0.5 14.7857 0.5Z" fill="white"/>
<path d="M14.7854 7.44775C10.7341 7.44775 7.44727 10.7346 7.44727 14.7859C7.44727 18.8373 10.7341 22.1241 14.7854 22.1241C18.8368 22.1241 22.1236 18.8373 22.1236 14.7859C22.1236 10.7346 18.8368 7.44775 14.7854 7.44775ZM14.7854 19.546C12.1571 19.546 10.0254 17.4143 10.0254 14.7859C10.0254 12.1576 12.1571 10.0259 14.7854 10.0259C17.4138 10.0259 19.5455 12.1576 19.5455 14.7859C19.5455 17.4143 17.4138 19.546 14.7854 19.546Z" fill="white"/>
<path d="M24.1275 7.15751C24.1275 8.10617 23.3574 8.87068 22.4143 8.87068C21.4657 8.87068 20.7012 8.10059 20.7012 7.15751C20.7012 6.20885 21.4713 5.44434 22.4143 5.44434C23.3574 5.44434 24.1275 6.21443 24.1275 7.15751Z" fill="white"/>
</g>
<defs>
<clipPath id="clip0_19_95">
<rect width="28.5714" height="28.5714" fill="white" transform="translate(0.5 0.5)"/>
</clipPath>
</defs>
</svg>
