<svg width="30" height="30" viewBox="0 0 30 30" fill="none" xmlns="http://www.w3.org/2000/svg">
<g clip-path="url(#clip0_19_94)">
<path d="M27.0991 0.5H2.75195C1.58566 0.5 0.642578 1.42076 0.642578 2.55915V27.0067C0.642578 28.1451 1.58566 29.0714 2.75195 29.0714H27.0991C28.2653 29.0714 29.214 28.1451 29.214 27.0123V2.55915C29.214 1.42076 28.2653 0.5 27.0991 0.5ZM9.11914 24.8471H4.87807V11.2087H9.11914V24.8471ZM6.99861 9.35045C5.637 9.35045 4.53767 8.25112 4.53767 6.89509C4.53767 5.53906 5.637 4.43973 6.99861 4.43973C8.35463 4.43973 9.45396 5.53906 9.45396 6.89509C9.45396 8.24554 8.35463 9.35045 6.99861 9.35045ZM24.9897 24.8471H20.7542V18.2176C20.7542 16.6384 20.7263 14.6016 18.5499 14.6016C16.3457 14.6016 16.0109 16.3259 16.0109 18.106V24.8471H11.781V11.2087H15.8435V13.0725H15.8993C16.4629 12.0011 17.8468 10.8683 19.906 10.8683C24.1973 10.8683 24.9897 13.692 24.9897 17.3638V24.8471Z" fill="white"/>
</g>
<defs>
<clipPath id="clip0_19_94">
<rect width="28.5714" height="28.5714" fill="white" transform="translate(0.642578 0.5)"/>
</clipPath>
</defs>
</svg>
