<svg width="512" height="434" viewBox="0 0 512 434" fill="none" xmlns="http://www.w3.org/2000/svg">
<g clip-path="url(#clip0_5_299)">
<path d="M192.73 316.56C196.86 315.73 213.93 315.81 217.84 316.99C225.97 319.44 223.95 330.07 217.48 331.3C214.3 331.91 193.74 331.75 190.95 330.87C183.81 328.63 184.34 318.24 192.73 316.55V316.56Z" fill="white"/>
<path d="M512 16.3301V165.33C509.76 169.39 508.51 173.48 504.5 176.33C502.54 177.73 495.51 180.33 493.5 180.33H445V275.33C476.91 277.64 504.01 294.11 512 326.33V377.33C505.42 396.28 489.64 399.92 471.14 398.47C456.51 445.32 392.55 444.29 377.33 398.3L138.45 398.28C137.27 398.24 136.31 398.35 135.5 399.33C134.14 400.97 131.71 408.67 129.83 411.66C110.82 441.81 64.2898 439.9 46.9798 408.86C45.3298 405.89 41.8998 394.64 40.9798 393.86C37.9898 391.35 23.4698 386.58 18.6498 384.19C9.57977 379.69 4.44977 377.13 0.00976562 367.33V284.33C4.90977 269.88 12.2898 262.1 26.9998 257.82C49.0798 251.4 60.4298 250.51 79.4798 235.3C107.49 212.92 120.3 199.57 159.47 197.29C188.2 195.62 228.88 195.52 257.55 197.29C273.91 198.3 292.04 203.6 306.31 211.53C339.36 229.9 368.14 261.88 407 267.34V180.34H351.5C350.85 180.34 344.82 178.54 343.75 178.09C337.31 175.33 333.88 168.42 333.1 161.74C332.11 153.16 331.88 129.26 333.06 120.91C334.3 112.11 344.67 110.32 347.78 119.06L347.99 161.85C348.12 163.59 349.41 164.39 350.94 164.9H494.04C494.79 164.65 496.99 163.29 496.99 162.85V17.8301C496.99 17.7201 495.6 16.3301 495.49 16.3301H348.99C348.53 18.1601 348.09 19.8601 347.94 21.7801C346.67 37.8701 350.39 59.7301 347.94 74.7701C346.66 82.6001 334.56 83.2001 333.09 72.7301C331.56 61.8501 331.87 31.1401 333.01 19.8301C334.02 9.74014 340.04 2.20014 350.46 1.28014C396.61 -2.79986 448.73 4.42014 495.5 1.32014C504.66 2.35014 509.28 8.06013 512 16.3201V16.3301ZM431 179.25H421V272.34H431V179.25ZM493.66 379.99C495.28 378.37 496.74 375.21 497.03 372.86C498.1 363.97 498.11 335.74 496.76 327.07C494.43 312.04 477.1 297.81 463.01 293.82C440.85 287.55 415.5 285.68 392.99 279.84C343.98 267.13 310.3 215.76 258.54 212.29C229.73 210.36 185.25 210.31 156.46 212.29C108.18 215.6 96.1098 250.77 56.5198 265.35C52.5698 266.8 48.4698 268.06 44.4298 269.26C32.4398 272.81 18.8498 271.4 15.0698 286.9L15.2198 363.62C15.7198 365.84 16.6298 366.35 18.2898 367.55C20.3798 369.06 38.2498 377.02 40.5098 377.34C42.7698 377.66 41.6998 377.01 41.9798 375.83C52.2798 333.08 105.96 321.82 129.63 358.2C135.06 366.54 136.08 374.03 138.67 383.37L375.39 383.39C378.22 366.9 384.3 352.79 399.09 343.91C431.52 324.43 471.02 345.97 473.06 383.28C479.8 382.89 488.41 385.25 493.67 379.99H493.66ZM123 384.95C123 366.32 107.9 351.21 89.2598 351.21C70.6198 351.21 55.5198 366.31 55.5198 384.95C55.5198 403.59 70.6198 418.69 89.2598 418.69C107.9 418.69 123 403.59 123 384.95ZM458.27 384.92C458.27 366.3 443.17 351.2 424.55 351.2C405.93 351.2 390.83 366.3 390.83 384.92C390.83 403.54 405.93 418.64 424.55 418.64C443.17 418.64 458.27 403.54 458.27 384.92Z" fill="white"/>
<path d="M157.499 237.33C126.169 240.09 116.439 257.77 93.8894 273.72C90.9894 275.77 78.2794 282.72 77.4894 284.32C75.8594 287.61 77.1894 290.34 80.7194 291.11C89.1094 292.93 108.339 289.13 114.759 292.07C120.309 294.62 119.699 304.55 110.549 305.38C103.379 306.03 82.4694 306.28 75.9494 304.89C70.0094 303.63 63.6994 297.25 62.4594 291.39C58.6094 273.23 75.4294 268.94 86.8994 260.72C110.569 243.76 121.169 225.75 154.469 223.29C189.019 220.73 226.659 225.31 261.539 223.29C300.819 228.85 329.809 260.5 363.219 279.32C369.869 286.45 373.999 298.55 363.749 304.57C295.859 306.36 227.519 304.77 159.459 305.37C147.399 304.27 152.329 291.32 156.509 291.32H183.009V237.32C174.739 237.85 165.679 236.6 157.509 237.32L157.499 237.33ZM353.999 291.33L351.929 288.9C323.739 275.37 288.879 237.33 256.499 237.33H197.999V291.33H353.999Z" fill="white"/>
<path d="M111.221 385C111.221 397.17 101.351 407.04 89.1806 407.04C77.0106 407.04 67.1406 397.17 67.1406 385C67.1406 372.83 77.0106 362.96 89.1806 362.96C101.351 362.96 111.221 372.83 111.221 385ZM96.8106 384.97C96.8106 380.8 93.4306 377.42 89.2606 377.42C85.0906 377.42 81.7106 380.8 81.7106 384.97C81.7106 389.14 85.0906 392.52 89.2606 392.52C93.4306 392.52 96.8106 389.14 96.8106 384.97Z" fill="white"/>
<path d="M446.68 385.061C446.68 397.231 436.81 407.101 424.64 407.101C412.47 407.101 402.6 397.231 402.6 385.061C402.6 372.891 412.47 363.021 424.64 363.021C436.81 363.021 446.68 372.891 446.68 385.061ZM432.11 384.921C432.11 380.741 428.72 377.351 424.54 377.351C420.36 377.351 416.97 380.741 416.97 384.921C416.97 389.101 420.36 392.491 424.54 392.491C428.72 392.491 432.11 389.101 432.11 384.921Z" fill="white"/>
<path d="M412.999 100.33V129.83C412.999 133.44 398.449 136.44 397.029 128.8L397.489 45.3095C398.599 43.0895 404.059 42.4895 406.469 42.2895C415.609 41.5195 434.859 42.0995 442.999 45.8295C459.649 53.4495 460.649 83.7795 446.499 94.3295C442.639 97.2095 433.129 100.33 428.499 100.33H412.999ZM412.999 87.3295H428.499C428.779 87.3295 433.109 85.8395 433.709 85.5395C441.679 81.4695 442.219 65.5395 435.929 59.8995C435.439 59.4595 431.759 57.3295 431.499 57.3295H412.999V87.3295Z" fill="white"/>
<path d="M116.31 85.0099C108.7 78.0499 122.31 68.4799 127.52 64.3599C170.21 30.6299 231.19 29.1399 275.88 59.9399C279.93 62.7299 291.89 72.0299 294.04 75.7699C297.46 81.7099 292.47 88.4899 286.2 86.6999C282.18 85.5499 269.91 73.7799 264.51 70.3099C228.62 47.2199 183.53 46.8399 147.07 68.9199C138.39 74.1699 131.71 80.6499 123.69 86.5899C121.67 87.9499 117.92 86.4899 116.3 85.0099H116.31Z" fill="white"/>
<path d="M146.28 115.05C138.76 107.54 153.93 97.1802 159.68 93.5002C189.5 74.4502 230.41 76.0702 257.48 99.3502C261.96 103.2 268.33 108.35 263.59 114.4C257.14 122.63 248.06 110.37 242.32 106.51C219.38 91.0602 189.03 91.8002 166.28 107.09C160.81 110.77 152.84 121.59 146.29 115.04L146.28 115.05Z" fill="white"/>
<path d="M198.76 122.59C207.96 121.33 217.77 123.49 225.69 128.14C230.86 131.17 238.48 136.61 234.41 143.24C228.78 152.41 219.29 140.16 212.55 138.28C206.46 136.58 199.38 136.84 193.6 139.44C188.19 141.87 186.4 147.29 179.57 146.28C174.8 145.58 173.19 141.49 174.19 137.06C175.63 130.68 192.5 123.45 198.75 122.59H198.76Z" fill="white"/>
</g>
<defs>
<clipPath id="clip0_5_299">
<rect width="512" height="433.23" fill="white"/>
</clipPath>
</defs>
</svg>
