<svg width="59" height="66" viewBox="0 0 59 66" fill="none" xmlns="http://www.w3.org/2000/svg">
<path fill-rule="evenodd" clip-rule="evenodd" d="M21.4119 3.23535C21.609 3.2414 21.7961 3.32275 21.9333 3.46218C22.0706 3.60161 22.1474 3.78816 22.1474 3.98234C22.1474 4.17653 22.0706 4.36308 21.9333 4.50251C21.7961 4.64194 21.609 4.72329 21.4119 4.72934H11.1771L14.4323 6.56692C14.6068 6.66516 14.7345 6.82761 14.7873 7.01854C14.8401 7.20947 14.8138 7.41324 14.714 7.58502C14.6142 7.75679 14.4492 7.88251 14.2552 7.93451C14.0613 7.9865 13.8543 7.96053 13.6798 7.86229L7.98364 4.6467C7.85818 4.58352 7.75308 4.48718 7.68012 4.36848C7.60717 4.24978 7.56926 4.11342 7.57063 3.97469C7.57201 3.83596 7.61262 3.70035 7.68791 3.58307C7.76321 3.4658 7.8702 3.37149 7.9969 3.31074L13.8094 0.0987797C13.9852 0.00207733 14.1927 -0.0219298 14.3865 0.0320392C14.4824 0.0587619 14.572 0.103824 14.6503 0.164653C14.7285 0.225481 14.7938 0.300885 14.8425 0.386558C14.8911 0.472232 14.9221 0.566498 14.9337 0.663974C14.9454 0.76145 14.9374 0.860227 14.9102 0.954665C14.8831 1.0491 14.8373 1.13735 14.7755 1.21438C14.7138 1.2914 14.6372 1.35569 14.5501 1.40357L11.2323 3.23535H21.4119ZM30.6969 9.01413C30.703 8.82004 30.7857 8.63593 30.9273 8.50077C31.0689 8.36562 31.2584 8.29004 31.4557 8.29004C31.6529 8.29004 31.8424 8.36562 31.984 8.50077C32.1257 8.63593 32.2083 8.82004 32.2144 9.01413V64.4953C32.2083 64.6894 32.1257 64.8735 31.984 65.0086C31.8424 65.1438 31.6529 65.2194 31.4557 65.2194C31.2584 65.2194 31.0689 65.1438 30.9273 65.0086C30.7857 64.8735 30.703 64.6894 30.6969 64.4953V9.01413ZM4.42207 48.8508C4.30134 48.851 4.18231 48.8228 4.07489 48.7685C3.96748 48.7143 3.87477 48.6355 3.80448 48.5389C3.73419 48.4423 3.68835 48.3305 3.67077 48.2129C3.65319 48.0953 3.66439 47.9753 3.70342 47.8628L9.48058 27.9561L8.27523 27.9495L4.78802 40.7633C4.143 43.133 1.23822 43.6324 0.255238 41.5114C-0.0238143 40.8886 -0.0758351 40.1901 0.107974 39.5339L4.26008 24.4904C5.31301 23.0645 6.33061 22.5006 7.88203 21.456C8.01247 21.3584 8.17175 21.3055 8.3356 21.3053L21.691 21.3582C23.3362 21.8768 24.7078 23.0125 25.5088 24.5194L29.6373 39.5296C30.2816 41.8963 28.0174 43.7607 26.0912 42.4081C25.5314 42.0053 25.1305 41.4241 24.9565 40.7633L21.4693 27.9517L20.3509 27.9575L26.1678 48.1093C26.1678 48.3074 26.0879 48.4974 25.9457 48.6375C25.8035 48.7776 25.6106 48.8564 25.4094 48.8566H21.205L21.0916 61.8125C21.0938 62.5776 20.7887 63.3126 20.2428 63.8572C19.6969 64.4018 18.9544 64.712 18.1772 64.72C17.4014 64.7103 16.661 64.3987 16.1176 63.8535C15.5742 63.3082 15.272 62.5734 15.2769 61.8096L15.3306 48.8508H14.4132L14.4633 61.8009C14.4682 62.5647 14.166 63.2995 13.6226 63.8448C13.0792 64.39 12.3387 64.7015 11.5629 64.7113C10.7858 64.7031 10.0436 64.3929 9.49785 63.8483C8.9521 63.3037 8.64709 62.5688 8.64927 61.8038L8.53809 48.8508H4.42207ZM5.42714 47.3561H24.405L18.619 27.4218C18.5853 27.3064 18.5804 27.1846 18.6049 27.0669C18.6293 26.9492 18.6823 26.8391 18.7593 26.7459C18.8364 26.6528 18.9352 26.5794 19.0473 26.532C19.1594 26.4845 19.2815 26.4645 19.4032 26.4737L21.9914 26.4592C22.1678 26.4455 22.3436 26.4931 22.488 26.5938C22.6325 26.6944 22.7366 26.8417 22.7822 27.0101L26.4203 40.3769C26.8481 41.9492 28.6028 41.4904 28.1735 39.913L24.1724 25.2146C23.8211 24.378 22.2233 22.9413 21.3059 22.8007H8.54693C7.42272 23.4571 6.41371 24.2882 5.55894 25.2617L1.56147 39.9493C1.15944 41.4882 2.89494 41.9499 3.32274 40.3784L6.9609 27.0115C7.00664 26.8431 7.11087 26.6958 7.25546 26.5952C7.40006 26.4945 7.5759 26.4469 7.75244 26.4606L10.6904 26.5012C10.7861 26.528 10.8755 26.5732 10.9536 26.634C11.0316 26.6949 11.0967 26.7703 11.1451 26.8559C11.1935 26.9415 11.2243 27.0357 11.2357 27.1331C11.2471 27.2304 11.239 27.329 11.2117 27.4233L5.42641 47.3576L5.42714 47.3561ZM19.6948 48.8508H16.843L16.7922 61.8009C16.7855 62.1696 16.9271 62.526 17.1861 62.7924C17.4451 63.0588 17.8006 63.2136 18.175 63.2231C18.5526 63.2159 18.9119 63.062 19.1746 62.795C19.4374 62.5281 19.5823 62.1697 19.5777 61.798L19.6948 48.8508ZM12.9015 48.8508H10.0498L10.1639 61.7951C10.1589 62.1663 10.3032 62.5244 10.5653 62.7913C10.8273 63.0582 11.1859 63.2124 11.5629 63.2202C11.9374 63.2107 12.2928 63.0559 12.5518 62.7895C12.8109 62.5231 12.9524 62.1667 12.9457 61.798L12.9008 48.8508H12.9015ZM44.9395 41.4962C46.2649 41.4962 48.0806 41.1381 48.1057 42.2211L48.032 61.8067C48.0255 62.1755 48.1672 62.5318 48.4264 62.7982C48.6855 63.0646 49.0411 63.2194 49.4156 63.2289C49.7925 63.2207 50.1508 63.0664 50.4128 62.7996C50.6747 62.5327 50.8191 62.1749 50.8146 61.8038L51.1194 27.2051C51.121 27.0088 51.2012 26.821 51.3427 26.6827C51.4842 26.5443 51.6755 26.4666 51.8749 26.4664H54.371C54.5722 26.4666 54.7651 26.5454 54.9073 26.6856C55.0495 26.8257 55.1294 27.0157 55.1294 27.2138V41.0518C55.1294 42.6821 56.9422 42.6821 56.9422 41.0518V25.872C56.6587 25.1487 56.2137 24.4974 55.6402 23.966C55.0667 23.4347 54.3793 23.0369 53.6288 22.8021H38.697C38.3288 22.9058 35.4425 24.9108 35.2731 25.8582V41.0424C35.2731 42.6727 37.0859 42.6727 37.0859 41.0424V27.2044C37.0861 27.0062 37.1662 26.8162 37.3085 26.6761C37.4508 26.536 37.6438 26.4572 37.8451 26.457H40.3412C40.5406 26.4572 40.7319 26.5349 40.8734 26.6733C41.0148 26.8116 41.0951 26.9994 41.0966 27.1957L41.4015 61.7944C41.3968 62.1661 41.5416 62.5246 41.8044 62.7916C42.0672 63.0586 42.4266 63.2124 42.8042 63.2195C43.1785 63.2098 43.5338 63.0549 43.7926 62.7885C44.0515 62.5221 44.193 62.1659 44.1862 61.7973L44.1126 42.2341C44.1122 42.1303 44.1338 42.0275 44.1761 41.9324C44.2184 41.8374 44.2804 41.752 44.3583 41.682C44.4361 41.6119 44.5279 41.5587 44.6279 41.5257C44.7279 41.4927 44.8338 41.4807 44.9388 41.4904L44.9395 41.4962ZM46.5918 42.9793H45.6272L45.7009 61.7994C45.706 62.5632 45.4039 63.298 44.8606 63.8433C44.3174 64.3886 43.577 64.7001 42.8012 64.7098C42.0241 64.7018 41.2816 64.3917 40.7357 63.8471C40.1898 63.3025 39.8847 62.5675 39.8869 61.8023L39.5924 27.9445H38.6042V41.0359C38.6042 43.4766 35.9358 44.7197 34.4197 42.9111C33.9859 42.3799 33.7518 41.7175 33.757 41.0359L33.8064 25.4697C34.469 23.6097 36.2981 22.6144 38.0336 21.4488C38.1648 21.3533 38.324 21.3024 38.4871 21.3038L54.0154 21.3567C55.0201 21.6519 55.9405 22.1752 56.7025 22.8844C57.4644 23.5936 58.0467 24.4689 58.4024 25.44C58.5658 25.8416 58.4649 39.4027 58.4649 41.0395C58.4649 43.4816 55.7965 44.7226 54.2812 42.9148C53.8473 42.3836 53.6132 41.7211 53.6185 41.0395V27.951H52.6281L52.3299 61.8089C52.3321 62.5739 52.0271 63.3087 51.4814 63.8533C50.9356 64.3979 50.1934 64.7082 49.4163 64.7164C48.6403 64.7068 47.8997 64.3954 47.3562 63.8501C46.8126 63.3048 46.5103 62.5699 46.5152 61.806L46.5889 42.9844L46.5918 42.9793ZM46.1088 11.7143C45.0514 11.7143 44.2091 11.5788 43.4448 12.3312C43.2467 12.5255 43.0895 12.7564 42.9824 13.0107C42.8752 13.2649 42.8202 13.5376 42.8204 13.8129V16.8494C42.8213 17.4063 43.0467 17.9401 43.4471 18.3335C43.8474 18.727 44.39 18.9479 44.9557 18.9479C46.4114 18.9479 47.9194 19.1726 48.7735 18.3311C48.9719 18.1368 49.1293 17.906 49.2368 17.6517C49.3444 17.3975 49.3998 17.1248 49.4001 16.8494V13.8129C49.3991 13.256 49.1737 12.7222 48.7734 12.3287C48.3731 11.9353 47.8305 11.7143 47.2648 11.7143H46.1088ZM46.1088 20.4419C44.6192 20.4419 43.6009 20.5449 42.3749 19.3872C42.0354 19.0546 41.7659 18.6593 41.5819 18.2239C41.398 17.7885 41.3031 17.3217 41.3028 16.8501V13.8129C41.3067 12.8611 41.6925 11.9494 42.3762 11.2765C43.0599 10.6036 43.986 10.224 44.9528 10.2203C46.8628 10.2203 48.585 9.96155 49.8861 11.3207C50.5457 11.9879 50.9155 12.8818 50.9169 13.8129V16.8494C50.9144 17.8016 50.529 18.714 49.8451 19.3872C49.1611 20.0604 48.2342 20.4396 47.267 20.4419H46.1088ZM14.8719 11.7143C13.8146 11.7143 12.9722 11.5788 12.2079 12.3312C12.0098 12.5255 11.8527 12.7564 11.7455 13.0107C11.6383 13.2649 11.5833 13.5376 11.5835 13.8129V16.8494C11.5845 17.4063 11.8099 17.9401 12.2102 18.3335C12.6106 18.727 13.1531 18.9479 13.7188 18.9479C15.1502 18.9479 16.709 19.1719 17.5366 18.3311C17.735 18.1368 17.8924 17.906 18 17.6517C18.1075 17.3975 18.163 17.1248 18.1633 16.8494V13.8129C18.1623 13.2566 17.9374 12.7234 17.5378 12.33C17.1383 11.9367 16.5967 11.7153 16.0316 11.7143H14.8719ZM14.8719 20.4419C13.3823 20.4419 12.3633 20.5449 11.1373 19.3872C10.798 19.0545 10.5287 18.6591 10.3449 18.2237C10.1611 17.7884 10.0663 17.3216 10.066 16.8501V13.8129C10.0698 12.8611 10.4556 11.9494 11.1393 11.2765C11.823 10.6036 12.7491 10.224 13.7159 10.2203C15.6112 10.2203 17.2973 9.9659 18.608 11.2794C18.9462 11.612 19.2145 12.0069 19.3975 12.4416C19.5806 12.8763 19.6749 13.3423 19.6749 13.8129V16.8494C19.6718 17.8013 19.2863 18.7132 18.6027 19.3863C17.919 20.0594 16.9926 20.4389 16.0257 20.4419H14.8719ZM47.3001 7.86229C47.1267 7.947 46.9269 7.9632 46.7417 7.90756C46.5565 7.85191 46.3999 7.72865 46.3041 7.56302C46.2083 7.39739 46.1804 7.20194 46.2262 7.01674C46.272 6.83153 46.3881 6.6706 46.5506 6.56692L49.8066 4.72934H39.5703C39.3731 4.72329 39.1861 4.64194 39.0488 4.50251C38.9115 4.36308 38.8348 4.17653 38.8348 3.98234C38.8348 3.78816 38.9115 3.60161 39.0488 3.46218C39.1861 3.32275 39.3731 3.2414 39.5703 3.23535H49.7499L46.4291 1.39995C46.2533 1.30315 46.1238 1.14158 46.0691 0.950785C46.0143 0.75999 46.0388 0.555598 46.1371 0.382572C46.2354 0.209546 46.3996 0.0820592 46.5934 0.0281582C46.7872 -0.0257428 46.9948 -0.00164328 47.1705 0.0951552L52.9816 3.30639C53.1086 3.36706 53.2159 3.46145 53.2914 3.57891C53.3669 3.69638 53.4076 3.83227 53.4089 3.97128C53.4102 4.11028 53.3721 4.24688 53.2988 4.3657C53.2255 4.48452 53.12 4.58084 52.9941 4.6438L47.3001 7.86229Z" fill="white"/>
</svg>
