<svg width="62" height="76" viewBox="0 0 62 76" fill="none" xmlns="http://www.w3.org/2000/svg">
<path d="M54.1412 39.1596L52.9302 39.3386C52.2592 39.4376 51.7991 40.0671 51.8982 40.7284C51.9972 41.3898 52.6267 41.8563 53.288 41.7605L54.499 41.5783C55.17 41.4825 55.6301 40.853 55.531 40.1885C55.432 39.5271 54.8026 39.0606 54.1412 39.1596Z" fill="white"/>
<path d="M61.2828 32.3699V32.3187V32.2868C61.2828 31.8714 61.1326 31.5264 60.9792 31.2899C60.7428 30.9288 60.4808 30.7179 60.2603 30.5454C60.0367 30.3825 59.8322 30.2674 59.7427 30.2099C59.3593 29.9895 58.9503 29.8425 58.4678 29.6955C57.6339 29.4495 56.5859 29.2354 55.426 29.0309C52.5791 28.5484 49.0677 28.1746 47.0068 27.9765V20.1484C47.0068 19.6596 46.7129 19.2091 46.256 19.0205C45.7575 18.8065 44.8821 18.5125 43.751 18.5061H43.4666C42.4921 18.5445 41.7253 18.8001 41.2428 19.011C40.7923 19.2091 40.4983 19.65 40.4983 20.142V27.9765C39.1627 28.0659 37.2585 28.2065 35.2934 28.4014C35.4915 25.3916 35.6864 22.3913 35.8845 19.3818C35.8845 19.2572 35.8749 19.1358 35.8494 19.0208C35.8494 19.0048 35.8685 18.9888 35.8685 18.9729C35.9069 18.8003 36.0155 18.3083 36.0155 17.6469C36.0155 16.7139 35.8014 15.372 34.8844 14.0971C34.1751 13.1162 33.2901 12.5187 32.5456 12.1736C32.3187 12.0682 32.1047 11.9851 31.9002 11.9116C31.8682 11.7007 31.8267 11.4707 31.7532 11.2247C31.5551 10.5217 31.1717 9.67824 30.4592 8.92736C29.4208 7.83784 27.999 7.25947 26.526 7.1924C26.542 7.02944 26.5675 6.87289 26.5675 6.69395C26.5675 6.34887 26.526 5.98144 26.4365 5.60443C26.395 5.42551 26.2959 5.05807 26.0691 4.61716C25.839 4.16665 25.478 3.63627 24.938 3.08669C23.7366 1.86933 22.2637 1.16319 20.9632 0.715931C19.6629 0.271807 18.5094 0.0928791 17.9375 0.00980762C17.4294 -0.0540951 16.931 0.198321 16.6946 0.648834C16.4581 1.09935 16.522 1.65533 16.8575 2.0387C16.8671 2.04829 17.046 2.25278 17.193 2.52116C17.3496 2.79275 17.455 3.11227 17.4454 3.30077C17.4454 3.38065 17.439 3.43816 17.4135 3.50526C17.3815 3.59473 17.308 3.69058 17.193 3.78323C17.078 3.87909 16.9406 3.95258 16.816 4.01967C16.5061 4.17304 16.2537 4.22416 15.9342 4.22416C15.6306 4.22416 15.2632 4.16665 14.8286 4.09316C14.3973 4.01967 13.8893 3.92062 13.3077 3.92062C12.6942 3.92062 11.9753 4.04523 11.2948 4.41906C11.1638 4.49255 10.8699 4.6587 10.5503 4.91751C10.4129 5.03253 10.266 5.17951 10.119 5.35205C9.76753 3.9302 9.41606 2.51473 9.06138 1.08977C8.93996 0.616893 8.54696 0.249485 8.06446 0.17595C7.81204 0.134414 7.47655 0.102462 7.07399 0.102462C6.55319 0.102462 5.92052 0.166366 5.2336 0.370858C4.30383 0.648831 3.62321 1.08337 3.19828 1.40925C2.80528 1.70321 2.63274 2.20484 2.74777 2.67773C3.29734 4.88556 3.84366 7.09338 4.39325 9.30447C4.04817 9.77096 3.80215 10.2694 3.65517 10.7423C3.46666 11.3398 3.41234 11.9117 3.41234 12.3941V12.5347C2.64231 12.7073 1.9554 13.0587 1.39944 13.5476C0.587872 14.2697 0.0575022 15.2346 0 16.3305V16.4935C0 17.2379 0.236438 17.9313 0.613466 18.5384C0.549563 18.6917 0.51442 18.8738 0.523998 19.0528C0.623044 21.2127 0.712512 23.379 0.808368 25.5389L0.82754 25.7019C0.907418 26.146 1.1215 27.1908 1.99697 28.1237C2.14395 28.2803 2.29092 28.4113 2.43789 28.5167C3.96837 40.4761 5.48927 52.4255 7.01656 64.3857L7.05809 64.5646C7.21466 65.111 7.52458 65.964 8.15399 66.8235C8.2115 66.8875 8.81858 67.731 9.88895 68.4083C11.3683 69.3158 13.1767 69.7184 14.7871 69.9548C16.391 70.1752 17.8001 70.2008 18.372 70.2008H18.65C21.7908 70.1273 23.8261 69.6672 25.2096 69.0889C25.8965 68.7917 26.427 68.4754 26.82 68.1559C27.213 67.846 27.4846 67.5265 27.6379 67.3284C27.8744 67.0344 28.0405 66.766 28.146 66.5999C28.2035 66.504 28.2514 66.405 28.2833 66.29C28.4239 65.8075 28.5549 65.325 28.6923 64.833C29.3889 62.2578 29.9608 59.7144 30.4273 57.2126C31.0983 61.6347 31.7692 66.0596 32.4402 70.4856L32.4881 70.6996C32.6543 71.1917 32.9802 71.9425 33.6351 72.687C33.699 72.7541 34.3221 73.473 35.386 74.045C36.8558 74.8054 38.6387 75.1409 40.2426 75.3358C41.837 75.5243 43.2301 75.5403 43.7924 75.5499H44.0544C47.1792 75.486 49.1921 75.109 50.5501 74.6265C51.2275 74.3805 51.7515 74.1089 52.154 73.8405C52.5438 73.5721 52.8218 73.3005 52.9784 73.128C53.2148 72.8756 53.3969 72.6455 53.5024 72.4921C53.5663 72.3995 53.6238 72.2877 53.6653 72.179C53.8123 71.7701 53.9529 71.3451 54.0839 70.9201C54.4034 69.8721 54.6398 68.8752 54.8188 67.9359C56.4706 59.1012 58.1321 50.2607 59.784 41.426C59.9565 41.263 60.1451 41.0649 60.324 40.8125C60.947 39.9211 61.0429 39.0137 61.0844 38.5855C61.1835 37.5471 61.2729 35.5597 61.2729 32.9333V32.3869L61.2828 32.3699ZM43.5561 20.9823H43.735C44.0289 20.9823 44.3005 21.0175 44.537 21.0654V29.7112C44.3005 29.7591 44.0385 29.8006 43.735 29.8006H43.6966C43.4091 29.8006 43.1631 29.7591 42.933 29.7112V21.0654C43.1215 21.0238 43.326 20.9919 43.5561 20.9823ZM41.2076 31.7245C41.6997 31.945 42.5591 32.2389 43.6615 32.2549H43.735C44.882 32.2549 45.7735 31.9354 46.2623 31.7245C46.7064 31.5264 47.0004 31.0855 47.0004 30.603V30.4624C48.4382 30.603 50.4831 30.8235 52.496 31.0919C53.8795 31.2804 55.2375 31.4944 56.3398 31.7245C56.8893 31.8363 57.3782 31.9513 57.7648 32.0664C57.9437 32.1143 58.1003 32.1718 58.2313 32.2229C58.1802 32.2389 58.1227 32.2549 58.0651 32.2645C57.5252 32.4019 56.7424 32.5425 55.7934 32.6543C52.9306 33.0058 48.5948 33.1943 44.2178 33.1943C40.9459 33.1943 37.6421 33.0888 34.8784 32.8843C33.4949 32.7789 32.252 32.6479 31.2295 32.4913C30.2167 32.338 29.4051 32.1558 28.9482 31.9833C29.0536 31.945 29.1782 31.9034 29.3156 31.8619C29.977 31.667 30.9771 31.4625 32.105 31.2964C32.7504 31.2005 33.4374 31.111 34.1403 31.028C36.4152 30.766 38.8531 30.5774 40.4891 30.472V30.6094C40.4891 31.0919 40.7766 31.536 41.2175 31.7309L41.2076 31.7245ZM6.86337 2.57834C7.24039 4.10882 7.62381 5.62972 8.00081 7.1602C7.44486 7.19215 6.9113 7.31676 6.42879 7.50208C6.05176 5.99074 5.67793 4.48587 5.30091 2.97135C5.47984 2.88188 5.66835 2.79881 5.8984 2.73491C6.24987 2.62947 6.5694 2.59433 6.86337 2.57834ZM26.3151 64.203C26.2001 64.6216 26.0851 65.0369 25.9605 65.4555C25.887 65.5705 25.8071 65.6855 25.7081 65.8165C25.609 65.9475 25.4972 66.0785 25.2831 66.2479C24.9636 66.5035 24.4077 66.8454 23.3596 67.1489C22.3148 67.4525 20.7844 67.7049 18.5925 67.7528H18.5446H18.3784C17.88 67.7528 16.5732 67.7304 15.1418 67.5259C13.7104 67.3278 12.1383 66.9285 11.199 66.331C10.8955 66.1425 10.6079 65.8901 10.413 65.6856C10.3139 65.5865 10.2405 65.4971 10.1925 65.4396L10.1414 65.3725C9.77396 64.8676 9.56948 64.3341 9.45445 63.9666C7.9176 51.95 6.38713 39.9424 4.85027 27.9349C9.30747 28.7688 14.1512 29.2513 18.9763 29.2513C20.6857 29.2513 22.3951 29.197 24.0822 29.066C24.7595 29.0148 25.2676 28.4269 25.2101 27.7464C25.1621 27.069 24.571 26.561 23.8936 26.6185C22.2737 26.7431 20.6218 26.7974 18.97 26.7974C13.7843 26.7974 8.53123 26.2255 3.84435 25.2446C3.64945 25.2031 3.45135 25.219 3.26284 25.2702C3.18935 23.6502 3.12544 22.0303 3.05196 20.4104C4.10638 20.6244 5.16073 20.8353 6.21834 21.0494C6.87973 21.1868 7.52519 20.7554 7.66571 20.0908C7.8031 19.4294 7.37176 18.784 6.70715 18.6435C5.66876 18.4326 4.63028 18.2281 3.59189 18.014C3.24681 17.8511 2.96245 17.6146 2.76437 17.343C2.55988 17.0555 2.47041 16.7551 2.47041 16.4931V16.442C2.48639 16.1161 2.66851 15.7167 3.02637 15.4036C3.37783 15.0937 3.86984 14.8828 4.44183 14.8828C4.51532 14.8828 4.58881 14.8828 4.67188 14.8892C5.07127 14.9307 5.48025 14.7678 5.73588 14.4483C5.99469 14.1383 6.07776 13.7102 5.96273 13.3204L5.94675 13.2533C5.9148 13.1223 5.84771 12.7964 5.84771 12.4098C5.84771 12.1158 5.88285 11.7963 5.97871 11.4864C6.07776 11.1765 6.22474 10.8825 6.48035 10.6046C6.97879 10.055 7.74564 9.71955 8.58912 9.71955C9.09714 9.71955 9.62751 9.84416 10.1196 10.0966C10.5765 10.333 11.1325 10.2531 11.5095 9.90807C11.8865 9.56618 12.0079 9.01666 11.8194 8.54372C11.7715 8.43509 11.6564 8.09959 11.666 7.77369C11.666 7.57559 11.698 7.39027 11.7874 7.21773C11.8705 7.05478 11.9919 6.9142 12.1133 6.80876C12.2443 6.70331 12.3594 6.63622 12.4488 6.58829C12.7524 6.43173 12.9824 6.3838 13.302 6.3838C13.5959 6.3838 13.9634 6.44132 14.3979 6.51481C14.8292 6.5883 15.3372 6.68415 15.9251 6.68415C16.5386 6.68415 17.2511 6.56273 17.938 6.21126C18.101 6.12819 18.4205 5.96524 18.756 5.68087C19.0915 5.3997 19.4685 4.98433 19.6953 4.39644C19.8359 4.0258 19.8934 3.65836 19.8934 3.31649C19.8934 3.18549 19.8775 3.07047 19.8615 2.95544C19.9573 2.98739 20.0564 3.02254 20.1618 3.05448C21.2418 3.42193 22.3728 3.99382 23.1812 4.82143C23.5487 5.19526 23.7532 5.51478 23.8778 5.75439C23.9992 5.99083 24.0247 6.12183 24.0407 6.17934C24.0823 6.36785 24.0982 6.54678 24.0982 6.70973C24.0982 7.29125 23.8682 7.82166 23.7468 8.05167C23.5167 8.48621 23.5742 9.01661 23.8842 9.39361C24.1941 9.77063 24.7021 9.93359 25.1686 9.80258C25.5296 9.70354 25.8875 9.6556 26.239 9.6556C27.1975 9.6556 28.073 10.0135 28.6608 10.6365C29.0475 11.0455 29.2583 11.496 29.3734 11.9114C29.4884 12.3203 29.5044 12.6814 29.5044 12.8379V12.8763C29.4948 13.4834 29.9293 14.0073 30.5268 14.1032C30.6322 14.1192 31.0252 14.1927 31.4822 14.4163C31.9487 14.6368 32.4663 14.9787 32.8816 15.5602C33.4216 16.3046 33.5462 17.0811 33.5462 17.6689V17.72C29.9133 18.57 25.5041 19.2825 20.4655 19.4294C19.7721 19.455 19.082 19.4614 18.4142 19.4614C15.4012 19.4614 12.663 19.2569 10.2249 18.9533C9.55388 18.8735 8.94042 19.3463 8.85732 20.0173C8.77744 20.6883 9.25032 21.3018 9.92131 21.3849C12.4422 21.6948 15.2955 21.9089 18.4141 21.9089C19.1075 21.9089 19.82 21.8993 20.5389 21.8737C25.4211 21.7267 29.7344 21.0717 33.3481 20.273C33.1692 23.0783 32.9806 25.89 32.8017 28.6955C31.9007 28.8105 31.0348 28.9415 30.2648 29.098C29.6513 29.2195 29.0858 29.3441 28.5969 29.4911C28.0984 29.6444 27.6799 29.7914 27.2709 30.0534C27.1559 30.1269 26.8939 30.293 26.6159 30.5614C26.4785 30.702 26.3315 30.865 26.2005 31.1014C26.0919 31.2899 26.0184 31.5359 25.9801 31.8139C25.9609 31.8714 25.9545 31.9353 25.9545 32.0024V32.0184V32.0408V32.1558C26.0535 33.9802 26.143 35.8143 26.2389 37.6354L26.2644 37.8239C26.3539 38.2265 26.5999 39.1915 27.5009 39.9999C27.6319 40.1149 27.7629 40.2139 27.8843 40.3034C28.3189 43.1567 28.7502 46.0131 29.1783 48.8666C28.6607 53.7998 27.7533 58.9282 26.3315 64.1868L26.3151 64.203ZM58.3209 39.3863C58.1963 39.5684 58.0493 39.6898 57.9342 39.7729C57.6914 39.9518 57.5093 40.2298 57.4518 40.5333C55.7679 49.5145 54.0905 58.4866 52.4066 67.4686C52.2437 68.3281 52.0232 69.2355 51.7357 70.1908C51.6302 70.5359 51.5152 70.8714 51.4098 71.1909C51.3427 71.2708 51.2788 71.3539 51.1861 71.4497C51.0902 71.5584 50.9912 71.6638 50.7771 71.8108C50.4608 72.0249 49.8857 72.3252 48.8249 72.5808C47.7609 72.8428 46.2145 73.0537 44.0067 73.0952H43.7926C43.2942 73.0952 41.9777 73.0793 40.5304 72.9067C39.083 72.7438 37.4854 72.3923 36.5301 71.8843C36.2201 71.7213 35.9422 71.5072 35.7537 71.3443C35.6546 71.2644 35.5811 71.1909 35.5332 71.1398L35.4821 71.0919C35.1466 70.6989 34.9581 70.2995 34.8526 70.0119C33.3957 60.3756 31.9418 50.7328 30.4784 41.0956C34.8781 41.9072 39.6387 42.3641 44.3837 42.3641C46.093 42.3641 47.8025 42.3066 49.4863 42.1756C50.1637 42.1277 50.6717 41.5398 50.6142 40.8592C50.5567 40.1818 49.9784 39.6738 49.2978 39.7313C47.6778 39.8527 46.026 39.9102 44.3741 39.9102C39.2364 39.9102 34.0507 39.3447 29.3982 38.3797C29.3055 38.3318 29.2097 38.2743 29.1202 38.1944C28.8422 37.9484 28.7176 37.6129 28.6697 37.4084C28.6186 36.4083 28.5643 35.421 28.5131 34.421C29.1681 34.6191 29.9382 34.7725 30.8456 34.9131C34.1749 35.4211 39.2133 35.6479 44.2012 35.6479C47.5975 35.6479 50.9493 35.5425 53.6911 35.322C55.065 35.2166 56.2823 35.076 57.2984 34.9131C57.8064 34.83 58.2538 34.7405 58.6628 34.6351C58.7203 34.6191 58.7618 34.6031 58.8097 34.5936C58.7778 36.3285 58.7139 37.6449 58.6468 38.3414C58.6148 38.6833 58.5573 39.0444 58.3209 39.3863Z" fill="white"/>
<path d="M51.416 54.4131L48.0228 52.9658C47.7352 52.8412 47.4253 52.7772 47.1217 52.7868C46.2238 52.7868 45.3708 53.3172 45.0034 54.1991L43.1055 58.7234C42.984 59.0109 42.9265 59.3209 42.9265 59.6148C42.9265 59.9087 42.9904 60.2027 43.0991 60.4743C42.6741 60.0334 42.083 59.7778 41.4536 59.7778C41.2331 59.7778 41.0127 59.8129 40.7986 59.8768L37.2648 60.9312C36.7663 61.0782 36.351 61.3913 36.073 61.7844C35.7855 62.1742 35.6289 62.6502 35.6289 63.1487C35.6289 63.3692 35.6641 63.5896 35.728 63.8037L37.1178 68.5069C37.4118 69.5039 38.3224 70.1588 39.3193 70.1588C39.5397 70.1588 39.7602 70.1268 39.9743 70.0597L43.5081 69.0053C44.0065 68.8583 44.4219 68.5484 44.6998 68.1554C44.9874 67.7624 45.144 67.2863 45.144 66.7974C45.144 66.577 45.1088 66.3565 45.0449 66.1424L43.655 61.4392C43.6295 61.3561 43.5975 61.2922 43.5656 61.2187C43.7765 61.4392 44.0225 61.6181 44.3164 61.7491L47.7096 63.1965C47.9972 63.3211 48.3071 63.385 48.6107 63.3786C49.5118 63.3786 50.3616 62.845 50.729 61.9631L52.6269 57.4389C52.7483 57.1545 52.8059 56.8414 52.8059 56.5475C52.8059 55.6561 52.285 54.7966 51.4096 54.4227L51.416 54.4131ZM41.5015 62.2157L41.4536 62.0623L41.1501 61.0399L41.5015 62.2157ZM39.4247 67.657L38.1243 63.2381L41.3546 62.2732L42.6549 66.692L39.4247 67.657ZM48.5375 60.8513L45.4286 59.5253L47.2115 55.279L50.3204 56.605L48.5375 60.8513Z" fill="white"/>
<path d="M42.3291 55.0746C42.802 55.5571 43.5816 55.5571 44.0641 55.0746C44.5465 54.6017 44.5465 53.8254 44.0641 53.3429L41.0606 50.3139L43.4154 47.9335L46.5818 51.1254C47.0579 51.6078 47.8343 51.6078 48.3168 51.1254C48.7992 50.6493 48.7992 49.8729 48.3168 49.3904L44.2749 45.3166C44.0481 45.0897 43.735 44.9587 43.3995 44.9587C43.064 44.9587 42.7636 45.0897 42.524 45.3166L38.4342 49.4415C37.9614 49.9144 37.9614 50.6908 38.4342 51.1669L42.2972 55.0586L42.3291 55.0746Z" fill="white"/>
</svg>
