<svg width="349" height="429" viewBox="0 0 349 429" fill="none" xmlns="http://www.w3.org/2000/svg">
<g clip-path="url(#clip0_4_258)">
<path d="M183.43 42.0998C178.22 47.1798 171.76 46.9798 172.91 57.3198L280.04 95.6998C305.83 101.23 306.06 137.01 279.33 140.49H54.2395C31.8395 139.1 26.1295 109.32 45.4495 98.6298L159.32 57.4998C160.04 49.3698 161.1 43.1598 167.25 37.4298C169.6 35.2398 173.59 33.6498 175.25 31.4298C182.55 21.6698 171.38 8.56982 160.44 15.6198C153.53 20.0798 157.45 31.1198 149.3 31.3398C137.47 31.6498 143.91 12.9298 149.24 7.41982C171.2 -15.2702 206.83 19.2498 183.42 42.0998H183.43ZM165.55 69.6298L52.0795 110.24C44.4495 114.37 45.1395 123.38 52.7295 127L276.32 127.49C286.55 128.54 289.54 114.71 281.49 110.24C242.74 97.1098 204.51 81.6698 165.55 69.6298Z" fill="white"/>
<path d="M159.719 160.44L159.719 421.36H172.829L172.829 160.44H159.719Z" fill="white"/>
<path d="M202.279 351.45C199.049 350.75 195.29 345.72 196.99 342.18L226.549 275.72C229.409 253.11 216.809 215.32 248.779 210.44C243.289 199.56 240.38 191.14 245.02 179.19C254.73 154.2 290.54 154.54 300.54 179.19C305.44 191.27 301.959 199.44 296.779 210.44C328.509 215.3 316.239 253.24 318.999 275.72L348.35 342.39C350.77 345.43 345.609 351.44 343.279 351.44H306.779V410.94C306.779 416.8 296.999 425.87 291.329 427.49C284.659 429.4 258.37 429.35 252.1 426.63C247.27 424.54 238.789 416.24 238.789 410.94V351.44H202.289L202.279 351.45ZM289.76 190.67C289.76 181.28 282.149 173.66 272.749 173.66C263.349 173.66 255.74 181.27 255.74 190.67C255.74 200.07 263.349 207.68 272.749 207.68C282.149 207.68 289.76 200.07 289.76 190.67ZM331.779 338.45L306.01 278.72C304.7 265.48 306.929 251.01 305.809 237.92C305.129 230.04 302.73 225.18 294.82 222.91C283.94 219.79 260.77 219.79 249.96 223.13C243.87 225.01 240.45 229.61 239.77 235.94C238.33 249.41 241.029 265.01 239.549 278.72L213.769 338.44H248.27C249.82 338.44 251.589 343.25 251.789 344.92C254.049 364 248.939 389.39 251.829 407.88C252.379 411.38 255.479 414.13 258.739 414.97C262.789 416.01 280.759 416.06 285.209 415.38C291.409 414.42 293.279 410.7 293.809 404.98C295.569 386.13 291.559 363.42 293.749 344.92C293.949 343.25 295.719 338.44 297.269 338.44H331.769L331.779 338.45Z" fill="white"/>
<path d="M84.7793 210.451C101.949 211.031 118.289 223.191 119.819 240.921C120.969 254.201 121.249 294.001 117.259 305.431C116.219 308.401 113.219 313.981 111.209 316.381C106.419 322.091 99.1193 323.241 94.9893 329.161L94.8193 405.991C94.2093 416.481 86.8093 426.611 76.0193 428.191C68.1593 429.341 45.3093 429.361 38.5493 426.181C30.0693 422.201 26.4493 413.951 25.7393 404.991C23.8393 380.881 27.2893 354.381 25.7093 330.021C24.8593 324.661 15.2493 322.121 11.1293 318.101C7.6193 314.681 4.7493 309.151 3.2693 304.461C-0.450701 292.701 -0.710701 252.091 1.0293 239.211C3.3193 222.271 19.5693 211.121 35.7793 210.451C32.2093 200.121 27.9893 193.111 31.4593 181.641C41.3593 148.891 90.8093 156.881 90.8493 190.951C90.8493 198.071 86.6693 203.911 84.7693 210.451H84.7793ZM77.2693 190.651C77.2693 181.281 69.6793 173.691 60.3093 173.691C50.9393 173.691 43.3493 181.281 43.3493 190.651C43.3493 200.021 50.9393 207.611 60.3093 207.611C69.6793 207.611 77.2693 200.021 77.2693 190.651ZM56.5693 220.751C39.8193 221.351 15.8593 223.431 13.7893 243.961C12.6293 255.511 12.6093 287.811 15.2093 298.511C19.0793 314.371 34.1793 310.981 38.4793 326.241C43.9693 345.681 37.6793 383.821 39.7193 406.001C40.2293 411.551 42.6693 414.561 48.3593 415.361C52.9393 416.011 72.7393 416.041 76.1393 414.321C80.0593 412.331 81.3393 408.001 81.7493 403.931C84.2293 379.361 79.7393 351.131 81.9893 326.171C86.6893 310.831 101.359 314.751 105.299 298.481C107.909 287.701 108.019 254.521 106.769 242.941C104.459 221.581 73.4093 220.141 56.5493 220.741L56.5693 220.751Z" fill="white"/>
</g>
<defs>
<clipPath id="clip0_4_258">
<rect width="348.98" height="428.9" fill="white"/>
</clipPath>
</defs>
</svg>
