<svg width="30" height="30" viewBox="0 0 30 30" fill="none" xmlns="http://www.w3.org/2000/svg">
<g clip-path="url(#clip0_19_96)">
<path d="M15.0709 0.5C7.18116 0.5 0.785156 6.896 0.785156 14.7857C0.785156 21.4851 5.39773 27.1069 11.62 28.6509V19.1514H8.6743V14.7857H11.62V12.9046C11.62 8.04229 13.8206 5.78857 18.5943 5.78857C19.4994 5.78857 21.0612 5.96629 21.7 6.14343V10.1006C21.3629 10.0651 20.7772 10.0474 20.0497 10.0474C17.7074 10.0474 16.8023 10.9349 16.8023 13.2417V14.7857H21.4686L20.6669 19.1514H16.8023V28.9669C23.876 28.1126 29.3572 22.0897 29.3572 14.7857C29.3566 6.896 22.9606 0.5 15.0709 0.5Z" fill="white"/>
</g>
<defs>
<clipPath id="clip0_19_96">
<rect width="28.5714" height="28.5714" fill="white" transform="translate(0.785156 0.5)"/>
</clipPath>
</defs>
</svg>
