<svg width="497" height="273" viewBox="0 0 497 273" fill="none" xmlns="http://www.w3.org/2000/svg">
<g clip-path="url(#clip0_5_294)">
<path d="M496 256.04H0V272.04H496V256.04Z" fill="white"/>
<path d="M296 64.05C293.54 41.96 305.66 7.55 276.26 0.28L62.46 0C29.89 4.5 42.37 41.1 40.01 64.04C-7.98999 65.35 -14.82 132.13 31.9 143.14C35 163.74 22.52 197.12 47.97 206.09C50.79 210.18 22.2 231.39 35.62 238.93C41.01 241.96 59.97 239.32 67.06 239.6L107.52 208.06C151.12 208.65 195.24 206.78 238.53 209.01L276.95 239.6C283.98 239.31 302.99 241.96 308.39 238.93C320.99 231.84 297.43 214.35 295.96 206.57C321.15 196.58 309.38 164.79 311.94 143.65C363.32 129.2 348.81 58.21 296 64.05ZM56 21.54C56 19.25 61.73 15.09 64.45 15.99H270.54C274.31 15.56 280 18.56 280 22.54V64.04C275.99 63.32 264 63.89 264 69.54V140.04C259.16 138.83 254.75 135.71 249.54 136C199.31 139.51 142.98 131.47 93.46 136C88.41 136.46 84.66 138.67 80 140.04V69.54C80 68.36 75.68 64.04 74.5 64.04H56V21.54ZM261 160.04H83C84.6 154.3 91.07 152.42 96.46 152C145.64 148.15 199.8 154.97 249.5 152.04C253.77 152.53 260.13 155.51 261 160.04ZM63.17 222.71C48.77 230.27 65.91 211.61 67 208.04H81C75.67 211.91 68.7 219.8 63.17 222.71ZM285.48 224.08C279.48 224.1 268.17 211.78 263 208.04H277C278.07 212.83 285.81 218.58 286.99 222.56C287.48 224.22 286.8 224.08 285.48 224.08ZM309.05 127.59C302.2 129.3 296.88 126.34 295.95 136.49C294.59 151.51 298.18 171.21 295.95 185.48C295.29 189.74 291.77 192.27 287.56 192.09H56.45C51.49 192.15 48.55 189.44 47.98 184.56C46.1 168.49 49.79 149.38 47.55 132.99C45.17 126.75 39.76 128.79 34.95 127.59C14.52 122.5 8.85001 96.31 26.67 84.21C28.1 83.23 34.37 80.04 35.5 80.04H64V170.54C64 172.83 69.73 176.99 72.45 176.09L272.52 176.06C274.98 176.65 280 172.44 280 170.54V80.04H308.5C309.63 80.04 315.9 83.23 317.34 84.21C335.17 96.32 329.47 122.51 309.05 127.59Z" fill="white"/>
<path d="M495.55 148.99C494.09 144.27 488.19 144.36 487.94 143.43V94.6001C486.92 89.4001 481.2 83.0601 480.23 78.3201C478.73 71.0101 483.04 52.8901 476.39 49.1601C473.44 47.5001 451.95 47.5001 447.48 48.0201C435.03 49.4601 441.64 69.1901 439.78 78.3201C438.9 82.5901 432.72 90.0101 432 93.5401V144.04H400L400.55 130.08L423.24 99.7901C425.61 93.9601 422.8 88.7501 416.52 88.0201C405.62 86.7401 379.62 86.9701 368.45 87.9901C362.46 88.5401 358.76 91.9501 360.19 98.3201C361.66 104.86 380 122.52 383.46 130.08L384 144.04H325.5C323.42 144.04 320.41 148.36 320.06 150.6C319.28 155.58 319.2 181.81 320.22 186.33C321.81 193.47 330.39 192.07 336 192.04V234.54C336 241.57 355.77 240.62 360.52 240.06C364.21 239.63 365.21 238.7 367.2 235.74C371.24 229.74 386.53 194.03 388.99 192.53C399.99 192.62 413.85 190.74 424.56 191.98C426 192.15 427.19 192.08 427.9 193.64C435.56 206.13 440.83 223.92 448.8 235.74C450.78 238.67 451.76 239.63 455.48 240.06C460.23 240.62 480 241.57 480 234.54V192.04C485.27 191.98 493.55 193.49 495.55 187.09C496.55 183.9 496.54 152.15 495.55 148.99ZM448 97.5401C448 96.2301 456 83.8501 456 82.5401V64.0401H464V82.5401C464 83.8501 472 96.2301 472 97.5401V144.04H448V97.5401ZM399 104.04C399.97 104.93 393.48 113.77 392.41 114C390.68 114.37 384.89 106.32 385 104.04H399ZM355.87 222.41C354.58 224.09 354.26 224.34 352 224.04V192.04H371C365.39 200.24 361.55 214.96 355.87 222.41ZM464 224.04C461.75 224.34 461.42 224.09 460.14 222.41C454.45 214.96 450.61 200.24 445 192.04H464V224.04ZM480 176.04H336V160.04H480V176.04Z" fill="white"/>
</g>
<defs>
<clipPath id="clip0_5_294">
<rect width="496.29" height="272.04" fill="white"/>
</clipPath>
</defs>
</svg>
