<svg width="40" height="40" viewBox="0 0 40 40" fill="none" xmlns="http://www.w3.org/2000/svg">
<path d="M19.9141 39.1973C17.2174 39.1973 14.6816 38.6839 12.3066 37.6572C9.94401 36.6429 7.86589 35.2389 6.07227 33.4453C4.27865 31.6517 2.86849 29.5736 1.8418 27.2109C0.827474 24.8359 0.320312 22.3001 0.320312 19.6035C0.320312 16.8945 0.827474 14.3587 1.8418 11.9961C2.86849 9.62109 4.27865 7.53678 6.07227 5.74316C7.86589 3.94954 9.94401 2.54557 12.3066 1.53125C14.6816 0.516927 17.2174 0.00976562 19.9141 0.00976562C22.623 0.00976562 25.1589 0.516927 27.5215 1.53125C29.8965 2.54557 31.9808 3.94954 33.7744 5.74316C35.568 7.53678 36.972 9.62109 37.9863 11.9961C39.013 14.3587 39.5264 16.8945 39.5264 19.6035C39.5264 22.3001 39.013 24.8359 37.9863 27.2109C36.972 29.5736 35.568 31.6517 33.7744 33.4453C31.9808 35.2389 29.8965 36.6429 27.5215 37.6572C25.1589 38.6839 22.623 39.1973 19.9141 39.1973ZM17.873 28.8994C18.2812 28.8994 18.6523 28.8066 18.9863 28.6211C19.3327 28.4232 19.6296 28.1449 19.877 27.7861L28.5049 14.6123C28.6533 14.3773 28.7708 14.1361 28.8574 13.8887C28.9564 13.6413 29.0059 13.4001 29.0059 13.165C29.0059 12.596 28.7894 12.126 28.3564 11.7549C27.9359 11.3838 27.4473 11.1982 26.8906 11.1982C26.1608 11.1982 25.5485 11.5941 25.0537 12.3857L17.8359 23.8711L14.5889 19.9004C14.3415 19.5911 14.0817 19.3685 13.8096 19.2324C13.5498 19.0964 13.2467 19.0283 12.9004 19.0283C12.3438 19.0283 11.8613 19.2324 11.4531 19.6406C11.0449 20.0365 10.8408 20.5189 10.8408 21.0879C10.8408 21.36 10.8903 21.6198 10.9893 21.8672C11.0882 22.1146 11.2428 22.3682 11.4531 22.6279L15.7949 27.8232C16.0918 28.182 16.4072 28.4541 16.7412 28.6396C17.0752 28.8128 17.4525 28.8994 17.873 28.8994Z" fill="white"/>
<path d="M19.9141 39.1973C17.2174 39.1973 14.6816 38.6839 12.3066 37.6572C9.94401 36.6429 7.86589 35.2389 6.07227 33.4453C4.27865 31.6517 2.86849 29.5736 1.8418 27.2109C0.827474 24.8359 0.320312 22.3001 0.320312 19.6035C0.320312 16.8945 0.827474 14.3587 1.8418 11.9961C2.86849 9.62109 4.27865 7.53678 6.07227 5.74316C7.86589 3.94954 9.94401 2.54557 12.3066 1.53125C14.6816 0.516927 17.2174 0.00976562 19.9141 0.00976562C22.623 0.00976562 25.1589 0.516927 27.5215 1.53125C29.8965 2.54557 31.9808 3.94954 33.7744 5.74316C35.568 7.53678 36.972 9.62109 37.9863 11.9961C39.013 14.3587 39.5264 16.8945 39.5264 19.6035C39.5264 22.3001 39.013 24.8359 37.9863 27.2109C36.972 29.5736 35.568 31.6517 33.7744 33.4453C31.9808 35.2389 29.8965 36.6429 27.5215 37.6572C25.1589 38.6839 22.623 39.1973 19.9141 39.1973ZM17.873 28.8994C18.2812 28.8994 18.6523 28.8066 18.9863 28.6211C19.3327 28.4232 19.6296 28.1449 19.877 27.7861L28.5049 14.6123C28.6533 14.3773 28.7708 14.1361 28.8574 13.8887C28.9564 13.6413 29.0059 13.4001 29.0059 13.165C29.0059 12.596 28.7894 12.126 28.3564 11.7549C27.9359 11.3838 27.4473 11.1982 26.8906 11.1982C26.1608 11.1982 25.5485 11.5941 25.0537 12.3857L17.8359 23.8711L14.5889 19.9004C14.3415 19.5911 14.0817 19.3685 13.8096 19.2324C13.5498 19.0964 13.2467 19.0283 12.9004 19.0283C12.3438 19.0283 11.8613 19.2324 11.4531 19.6406C11.0449 20.0365 10.8408 20.5189 10.8408 21.0879C10.8408 21.36 10.8903 21.6198 10.9893 21.8672C11.0882 22.1146 11.2428 22.3682 11.4531 22.6279L15.7949 27.8232C16.0918 28.182 16.4072 28.4541 16.7412 28.6396C17.0752 28.8128 17.4525 28.8994 17.873 28.8994Z" fill="url(#paint0_linear_19_32)"/>
<defs>
<linearGradient id="paint0_linear_19_32" x1="20" y1="-3" x2="20" y2="42" gradientUnits="userSpaceOnUse">
<stop stop-color="#FF6E4C"/>
<stop offset="1" stop-color="#DB4729"/>
</linearGradient>
</defs>
</svg>
