<svg width="58" height="49" viewBox="0 0 58 49" fill="none" xmlns="http://www.w3.org/2000/svg">
<path d="M57.1987 11.7169C53.5101 8.04197 49.2196 5.15759 44.4363 3.14229C39.4873 1.05394 34.2229 0 28.8072 0C23.3911 0 18.1271 1.05401 13.1781 3.14229C8.39511 5.15773 4.10131 8.04212 0.4157 11.7169C-0.138567 12.2691 -0.138567 13.1744 0.4157 13.7267L5.95556 19.246C6.23691 19.5263 6.59705 19.6609 6.96279 19.6609C7.33136 19.6609 7.69148 19.5235 7.97001 19.246C13.538 13.6986 20.9348 10.6492 28.8073 10.6492C36.6799 10.6492 44.0763 13.7074 49.6447 19.246C50.1989 19.7983 51.1077 19.7983 51.662 19.246L57.2019 13.7267C57.7561 13.1745 57.7561 12.2691 57.2019 11.7169H57.1987ZM50.6291 16.2523C44.6587 10.7918 36.9584 7.80617 28.8042 7.80617C20.6501 7.80617 12.9497 10.7999 6.97942 16.2523L3.45688 12.7428C10.3726 6.34887 19.3172 2.84786 28.8038 2.84786C38.2905 2.84786 47.2355 6.34894 54.1507 12.7428L50.6291 16.2523ZM28.8042 15.6048C22.2656 15.6048 16.1124 18.1444 11.4811 22.7527C10.9268 23.3049 10.9268 24.2103 11.4811 24.7625L17.021 30.2819C17.2882 30.5482 17.654 30.6967 18.0282 30.6967C18.4024 30.6967 18.7709 30.5454 19.0354 30.2819C21.6436 27.6834 25.1155 26.2482 28.8015 26.2482C32.4901 26.2482 35.962 27.675 38.5676 30.2819C38.849 30.5622 39.2091 30.6967 39.5748 30.6967C39.9434 30.6967 40.3035 30.5594 40.5821 30.2819L46.1219 24.7625C46.3892 24.4962 46.5383 24.1318 46.5383 23.7591C46.5383 23.3862 46.3864 23.0191 46.1219 22.7556C41.4964 18.1472 35.346 15.6076 28.7988 15.6076L28.8042 15.6048ZM39.5348 27.3023C36.5383 24.7767 32.7795 23.406 28.8042 23.406C24.829 23.406 21.0758 24.7851 18.0737 27.3023L14.5455 23.7873C18.493 20.3366 23.5064 18.4473 28.8076 18.4473C34.1087 18.4473 39.1218 20.3338 43.0696 23.7873L39.5414 27.3023H39.5348ZM28.8042 31.2071C23.934 31.2071 19.9723 35.1539 19.9723 40.0063C19.9723 44.8584 23.9338 48.8054 28.8042 48.8054C33.6747 48.8054 37.6362 44.8586 37.6362 40.0063C37.6362 35.1541 33.6747 31.2071 28.8042 31.2071ZM28.8042 45.9602C25.5068 45.9602 22.8255 43.2916 22.8255 40.0035C22.8255 36.7183 25.504 34.0469 28.8042 34.0469C32.1017 34.0469 34.783 36.7155 34.783 40.0035C34.783 43.2888 32.1045 45.9602 28.8042 45.9602Z" fill="white"/>
</svg>
