<svg width="30" height="21" viewBox="0 0 30 21" fill="none" xmlns="http://www.w3.org/2000/svg">
<path d="M29.2146 5.07129C29.2146 5.07129 28.9355 3.10142 28.0762 2.23647C26.988 1.09807 25.7715 1.09249 25.2135 1.02553C21.2179 0.735351 15.219 0.735352 15.219 0.735352H15.2079C15.2079 0.735352 9.20898 0.735351 5.21345 1.02553C4.65541 1.09249 3.4389 1.09807 2.35073 2.23647C1.49135 3.10142 1.21791 5.07129 1.21791 5.07129C1.21791 5.07129 0.927734 7.38714 0.927734 9.69741V11.8626C0.927734 14.1729 1.21233 16.4887 1.21233 16.4887C1.21233 16.4887 1.49135 18.4586 2.34515 19.3235C3.43331 20.4619 4.86189 20.4229 5.49805 20.5456C7.78599 20.7633 15.2134 20.8302 15.2134 20.8302C15.2134 20.8302 21.2179 20.8191 25.2135 20.5345C25.7715 20.4675 26.988 20.4619 28.0762 19.3235C28.9355 18.4586 29.2146 16.4887 29.2146 16.4887C29.2146 16.4887 29.4992 14.1784 29.4992 11.8626V9.69741C29.4992 7.38714 29.2146 5.07129 29.2146 5.07129ZM12.2614 14.4909V6.4608L19.9791 10.4898L12.2614 14.4909Z" fill="white"/>
</svg>
